<?xml version="1.0" encoding="utf-8"?>
<!-- Generator: Adobe Illustrator 17.1.0, SVG Export Plug-In . SVG Version: 6.00 Build 0)  -->
<!DOCTYPE svg PUBLIC "-//W3C//DTD SVG 1.1//EN" "http://www.w3.org/Graphics/SVG/1.1/DTD/svg11.dtd">
<svg version="1.1" id="Layer_1" xmlns="http://www.w3.org/2000/svg" xmlns:xlink="http://www.w3.org/1999/xlink" x="0px" y="0px"
	 viewBox="0 0 332 66" enable-background="new 0 0 332 66" xml:space="preserve">
<g>
	<g>
		<path d="M150.957,63.875c0-10.746,6.002-17.315,17.836-26.189l2.166-1.62c5.752-4.35,10.585-7.937,10.585-14.081
			c0-6.311-4.085-9.977-10.668-9.977c-7.751,0-12.751,4.775-16.584,8.789v-7.769c2.834-2.556,8.833-7.422,17.833-7.422
			c8.836,0,16.837,5.208,16.837,15.953c0,9.642-7.001,14.933-15.753,20.903l-2.25,1.536c-7.582,5.208-11.251,10.746-12.002,13.481
			h24.337v-9.473c1.084-0.336,2.166-0.51,3.165-0.51c1.172,0,2.257,0.174,3.253,0.51v15.869H150.957z"/>
		<path d="M216.113,11.923c-8.089,0-11.922,8.874-11.922,23.369c0,14.592,3.833,23.633,11.922,23.633
			c8.165,0,11.999-9.041,11.999-23.633C228.112,20.797,224.278,11.923,216.113,11.923 M216.113,65.237
			c-16.253,0-19.419-17.825-19.419-29.945c0-12.023,3.166-29.686,19.419-29.686c16.336,0,19.501,17.663,19.501,29.686
			C235.614,47.412,232.449,65.237,216.113,65.237"/>
		<path d="M261.013,11.923c-8.083,0-11.916,8.874-11.916,23.369c0,14.592,3.833,23.633,11.916,23.633
			c8.17,0,12.004-9.041,12.004-23.633C273.017,20.797,269.183,11.923,261.013,11.923 M261.013,65.237
			c-16.254,0-19.419-17.825-19.419-29.945c0-12.023,3.165-29.686,19.419-29.686c16.335,0,19.506,17.663,19.506,29.686
			C280.519,47.412,277.348,65.237,261.013,65.237"/>
		<path d="M303.667,65.237c-7.168,0-13.499-2.646-16.839-5.112v-8.453c3.921,2.819,8.586,7.169,17.338,7.169
			c7.25,0,12.502-4.434,12.502-11.172c0-9.731-8.582-10.667-13.417-10.667h-3.001c-0.334-1.11-0.498-1.962-0.498-3.072
			c0-1.104,0.164-1.877,0.498-2.987h3.499c5.498,0,11.002-2.814,11.002-10.062c0-3.498-2.251-8.958-10.668-8.958
			c-7.913,0-13.334,5.286-15.585,8.022v-7.596c3.247-3.839,10.251-6.743,16.418-6.743c10.421,0,16.916,6.57,16.916,15.017
			c0,7.422-4.08,10.92-7.328,12.966c5.411,1.877,9.496,5.717,9.496,13.823C324,56.279,318.086,65.237,303.667,65.237"/>
		<path d="M76.576,40.921c-3.803,0-7.344-0.998-10.016-3.778v2.623c-0.766,0.314-1.588,0.527-2.366,0.527
			c-0.818,0-1.686-0.213-2.617-0.527V25.887c1.084-0.314,2.007-0.527,2.825-0.527c0.822,0,1.747,0.213,2.311,0.527v2.893
			c0,3.318,3.549,6.838,9.704,6.838c4.677,0,7.347-2.208,7.347-5.314c0-2.993-2.155-4.994-5.958-6.042l-6.011-1.682
			C66.87,21.212,62.3,18.634,62.3,12.277c0-7.623,6.317-11.514,12.682-11.514c3.595,0,6.676,1.155,8.732,3.42V1.918
			c1.024-0.37,1.898-0.583,2.719-0.583c0.819,0,1.693,0.213,2.314,0.583v13.039c-0.621,0.313-1.545,0.526-2.366,0.526
			c-0.818,0-1.744-0.213-2.774-0.526V12.49c0-3.262-2.77-6.525-8.367-6.525c-3.905,0-6.577,2.265-6.577,5.314
			c0,1.996,1.079,3.734,4.216,4.619l7.599,2.164c6.007,1.682,9.961,4.776,9.961,11.558C90.439,37.614,83.868,40.921,76.576,40.921"
			/>
		<path d="M124.926,14.586c-0.874,0-1.848-0.202-2.826-0.572V6.755h-7.083v28.336h3.493c0.255,0.785,0.408,1.681,0.408,2.466
			c0,0.797-0.153,1.681-0.408,2.478h-13.767c-0.254-0.797-0.408-1.681-0.408-2.478c0-0.785,0.154-1.681,0.408-2.466h3.491V6.755
			h-7.081v7.259c-0.774,0.37-1.752,0.572-2.625,0.572c-0.871,0-1.846-0.202-2.824-0.572V1.705h31.845v12.309
			C126.777,14.384,125.797,14.586,124.926,14.586"/>
		<path d="M8.501,63.875C8.167,62.849,8,61.913,8,60.887c0-1.02,0.167-1.962,0.501-2.982h6.251V7.658H8.501
			C8.167,6.632,8,5.696,8,4.67c0-1.026,0.167-1.962,0.501-2.988h45.587v18.089c-1.085,0.342-2.166,0.51-3.25,0.51
			c-1.085,0-2.166-0.168-3.25-0.51V8.342H22.334v20.213h25.254c0.334,1.11,0.5,2.22,0.5,3.33c0,1.11-0.166,2.219-0.5,3.329H22.334
			v22.007h25.837V45.534c1.166-0.342,2.251-0.51,3.25-0.51c1.084,0,2.166,0.168,3.168,0.51v18.341H8.501z"/>
		<path d="M62.13,63.875c-0.372-1.138-0.559-2.186-0.559-3.324c0-1.144,0.187-2.186,0.559-3.33h6.966h46.23h11.664
			c0.373,1.144,0.559,2.186,0.559,3.33c0,1.138-0.186,2.186-0.559,3.324H62.13z"/>
	</g>
</g>
</svg>
