<?xml version="1.0" encoding="utf-8"?>
<!-- Generator: Adobe Illustrator 17.0.0, SVG Export Plug-In . SVG Version: 6.00 Build 0)  -->
<!DOCTYPE svg PUBLIC "-//W3C//DTD SVG 1.1//EN" "http://www.w3.org/Graphics/SVG/1.1/DTD/svg11.dtd">
<svg version="1.1" id="Layer_1" xmlns="http://www.w3.org/2000/svg" xmlns:xlink="http://www.w3.org/1999/xlink" x="0px" y="0px"
	 width="140px" height="67.1px" viewBox="0 0 140 67.1" enable-background="new 0 0 140 67.1" xml:space="preserve">
<g>
	<g>
		<path fill="#FFFFFF" d="M94.4,36.4c1.5,0.4,2.7,0.7,3.6,1.1h10.1c-1.4-4.6-6-5.8-10.3-6.8c-6.6-1.6-7.4-2.3-7.4-4.3
			c0-2,1.8-3.5,5.5-3.5c3.7,0,6.2,2.4,6.2,5v0.8c0.9,0.4,1.7,0.6,2.5,0.6c0.9,0,1.7-0.2,2.5-0.6v-9.4c-0.8-0.3-1.6-0.5-2.5-0.5
			c-0.8,0-1.6,0.2-2.5,0.5v1.7c-1.4-1.4-3.5-2.7-7.3-2.7c-4.7,0-11,2.4-11,9.4C83.7,34,90,35.3,94.4,36.4"/>
		<path fill="#FFFFFF" d="M109.7,10v27.5h7.4v-5.8c0-6.6,3.4-8.1,6-8.1c3.7,0,4.6,2.2,4.6,6.1v7.7h7.4V29c0-7-3.5-11-10-11
			c-3.7,0-6.3,1.6-7.9,3.3V5h-10.9c-0.3,0.8-0.5,1.7-0.5,2.5c0,0.8,0.2,1.7,0.5,2.5H109.7z"/>
		<path fill="#FFFFFF" d="M58.4,27.2c3.6-2.3,6.6-3.7,10.1-3.7c4.8,0,5.9,2.1,5.9,6.1c-6.9,0.6-16.3,0.4-18.2,7.9h7.6
			c0.8-1.2,2.3-2,4.5-2.2l6.1-0.6v2.8h7.1v-8.9c0-9.7-8.2-10.5-11.6-10.5c-5.7,0-9.4,2-11.5,3.3V27.2z"/>
		<path fill="#FFFFFF" d="M51.9,12.1l-6.5,25.3H52l6.6-25.3h3.5c0.3-0.8,0.5-1.7,0.5-2.6c0-0.9-0.2-1.9-0.5-2.8H47.8
			c-0.4,1-0.6,2-0.6,2.8c0,0.9,0.2,1.9,0.6,2.6H51.9z"/>
		<path fill="#FFFFFF" d="M8.9,12.1l6.3,25.3h7.2l-6.3-25.3h4.3c0.3-0.8,0.5-1.8,0.5-2.7c0-0.9-0.2-1.9-0.5-2.8h-15
			C5.2,7.7,5,8.7,5,9.5c0,0.9,0.2,1.9,0.5,2.6H8.9z"/>
	</g>
	<polygon fill="#FFFFFF" points="29.2,37.5 33.7,18.4 38,37.5 45,37.5 38.2,6.7 30,6.7 22.8,37.5 	"/>
	<g>
		<path fill="#FFFFFF" d="M67.4,61.9c0-1.6,0.9-2.5,2.6-3.8l0.3-0.2c0.8-0.6,1.6-1.1,1.6-2c0-0.9-0.6-1.4-1.6-1.4
			c-1.1,0-1.9,0.7-2.4,1.3v-1.1c0.4-0.4,1.3-1.1,2.6-1.1c1.3,0,2.5,0.8,2.5,2.3c0,1.4-1,2.2-2.3,3L70.3,59c-1.1,0.8-1.7,1.6-1.8,1.9
			h3.6v-1.4c0.2-0.1,0.3-0.1,0.5-0.1c0.2,0,0.3,0,0.5,0.1v2.3H67.4z"/>
		<path fill="#FFFFFF" d="M76.9,54.4c-1.2,0-1.7,1.3-1.7,3.4c0,2.1,0.6,3.4,1.7,3.4c1.2,0,1.8-1.3,1.8-3.4
			C78.7,55.6,78.1,54.4,76.9,54.4 M76.9,62.1c-2.4,0-2.8-2.6-2.8-4.3c0-1.7,0.5-4.3,2.8-4.3c2.4,0,2.9,2.5,2.9,4.3
			C79.8,59.5,79.3,62.1,76.9,62.1"/>
		<path fill="#FFFFFF" d="M83.5,54.4c-1.2,0-1.7,1.3-1.7,3.4c0,2.1,0.6,3.4,1.7,3.4c1.2,0,1.8-1.3,1.8-3.4
			C85.3,55.6,84.7,54.4,83.5,54.4 M83.5,62.1c-2.4,0-2.8-2.6-2.8-4.3c0-1.7,0.5-4.3,2.8-4.3c2.4,0,2.9,2.5,2.9,4.3
			C86.4,59.5,85.9,62.1,83.5,62.1"/>
		<path fill="#FFFFFF" d="M89.8,62.1c-1.1,0-2-0.4-2.5-0.7v-1.2c0.6,0.4,1.3,1,2.5,1c1.1,0,1.8-0.6,1.8-1.6c0-1.4-1.3-1.5-2-1.5
			h-0.4c0-0.2-0.1-0.3-0.1-0.4c0-0.2,0-0.3,0.1-0.4h0.5c0.8,0,1.6-0.4,1.6-1.5c0-0.5-0.3-1.3-1.6-1.3c-1.2,0-2,0.8-2.3,1.2v-1.1
			c0.5-0.6,1.5-1,2.4-1c1.5,0,2.5,0.9,2.5,2.2c0,1.1-0.6,1.6-1.1,1.9c0.8,0.3,1.4,0.8,1.4,2C92.8,60.8,91.9,62.1,89.8,62.1"/>
		<path fill="#FFFFFF" d="M56.9,57.5c-0.5,0-0.9-0.1-1.2-0.4v0.3c-0.1,0-0.2,0.1-0.3,0.1c-0.1,0-0.2,0-0.3-0.1v-1.6
			c0.1,0,0.2-0.1,0.3-0.1c0.1,0,0.2,0,0.3,0.1v0.3c0,0.4,0.4,0.8,1.2,0.8c0.6,0,0.9-0.3,0.9-0.6c0-0.4-0.3-0.6-0.7-0.7l-0.7-0.2
			c-0.6-0.2-1.1-0.5-1.1-1.2c0-0.9,0.8-1.4,1.5-1.4c0.4,0,0.8,0.1,1,0.4v-0.3c0.1,0,0.2-0.1,0.3-0.1c0.1,0,0.2,0,0.3,0.1v1.5
			c-0.1,0-0.2,0.1-0.3,0.1s-0.2,0-0.3-0.1v-0.3c0-0.4-0.3-0.8-1-0.8c-0.5,0-0.8,0.3-0.8,0.6c0,0.2,0.1,0.4,0.5,0.5l0.9,0.3
			c0.7,0.2,1.2,0.6,1.2,1.4C58.6,57.1,57.8,57.5,56.9,57.5"/>
		<path fill="#FFFFFF" d="M62.7,54.4c-0.1,0-0.2,0-0.3-0.1v-0.9h-0.8v3.3h0.4c0,0.1,0,0.2,0,0.3c0,0.1,0,0.2,0,0.3h-1.6
			c0-0.1,0-0.2,0-0.3c0-0.1,0-0.2,0-0.3h0.4v-3.3h-0.8v0.9c-0.1,0-0.2,0.1-0.3,0.1c-0.1,0-0.2,0-0.3-0.1v-1.5H63v1.5
			C62.9,54.4,62.8,54.4,62.7,54.4"/>
		<path fill="#FFFFFF" d="M47.3,61.9c0-0.1-0.1-0.3-0.1-0.4c0-0.1,0-0.3,0.1-0.4h0.9v-7.3h-0.9c0-0.1-0.1-0.3-0.1-0.4
			c0-0.1,0-0.3,0.1-0.4H54v2.6c-0.2,0-0.3,0.1-0.5,0.1c-0.2,0-0.3,0-0.5-0.1v-1.7h-3.7v2.9H53c0,0.2,0.1,0.3,0.1,0.5
			c0,0.2,0,0.3-0.1,0.5h-3.7v3.2h3.8v-1.7c0.2,0,0.3-0.1,0.5-0.1c0.2,0,0.3,0,0.5,0.1v2.6H47.3z"/>
		<path fill="#FFFFFF" d="M63,59.1c0,0.1,0,0.2,0,0.3c0,0.1,0,0.2,0,0.3h-7.8c0-0.1,0-0.2,0-0.3c0-0.1,0-0.2,0-0.3H63z"/>
	</g>
</g>
</svg>
